<mxfile host="app.diagrams.net" agent="Mozilla/5.0 (Macintosh; Intel Mac OS X 10_15_7) AppleWebKit/537.36 (KHTML, like Gecko) Chrome/131.0.0.0 Safari/537.36" version="25.0.3">
  <diagram id="iPC49v0qRj3MABRBR_kd" name="data flow">
    <mxGraphModel dx="906" dy="597" grid="1" gridSize="10" guides="1" tooltips="1" connect="1" arrows="1" fold="1" page="1" pageScale="1" pageWidth="1600" pageHeight="900" math="0" shadow="0">
      <root>
        <mxCell id="0" />
        <mxCell id="1" parent="0" />
        <mxCell id="43LEpUkmqykjruBSBFt2-34" value="&lt;i style=&quot;font-size: 10px&quot;&gt;&lt;font color=&quot;#b3b3b3&quot;&gt;Data ETL&lt;br&gt;&lt;br&gt;&lt;br&gt;&lt;br&gt;&lt;br&gt;&lt;br&gt;&lt;br&gt;&lt;br&gt;&lt;br&gt;&lt;br&gt;&lt;br&gt;&lt;br&gt;&lt;br&gt;&lt;br&gt;&lt;br&gt;&lt;br&gt;&lt;br&gt;&lt;br&gt;&lt;br&gt;&lt;br&gt;&lt;br&gt;&lt;br&gt;&lt;br&gt;&lt;br&gt;&lt;br&gt;&lt;br&gt;&lt;br&gt;&lt;br&gt;&lt;br&gt;&lt;/font&gt;&lt;br&gt;&lt;/i&gt;" style="rounded=0;whiteSpace=wrap;html=1;dashed=1;strokeColor=#B3B3B3;fillColor=none;fontColor=#333333;fontFamily=Verdana;" parent="1" vertex="1">
          <mxGeometry x="1040" y="80" width="280" height="440" as="geometry" />
        </mxCell>
        <mxCell id="v0f8w1BDAQ7m54HIx2ON-8" value="" style="edgeStyle=orthogonalEdgeStyle;rounded=0;orthogonalLoop=1;jettySize=auto;html=1;fontFamily=Verdana;fontSize=5;fontColor=#666666;startArrow=none;startFill=0;endArrow=none;endFill=0;entryX=1;entryY=0.5;entryDx=0;entryDy=0;strokeColor=#666666;" parent="1" source="90EX6WXlLNK09aK0P_v6-12" target="nlrlFGh5VtMJapMN1K8R-7" edge="1">
          <mxGeometry relative="1" as="geometry" />
        </mxCell>
        <mxCell id="v0f8w1BDAQ7m54HIx2ON-9" value="" style="edgeStyle=orthogonalEdgeStyle;rounded=0;orthogonalLoop=1;jettySize=auto;html=1;fontFamily=Verdana;fontSize=5;fontColor=#666666;startArrow=none;startFill=0;endArrow=none;endFill=0;strokeColor=#666666;entryX=0;entryY=0.5;entryDx=0;entryDy=0;" parent="1" source="90EX6WXlLNK09aK0P_v6-12" target="43LEpUkmqykjruBSBFt2-34" edge="1">
          <mxGeometry relative="1" as="geometry">
            <mxPoint x="1020" y="300" as="targetPoint" />
          </mxGeometry>
        </mxCell>
        <mxCell id="90EX6WXlLNK09aK0P_v6-12" value="&lt;i style=&quot;font-size: 10px&quot;&gt;&lt;font color=&quot;#b3b3b3&quot;&gt;Data Cache&lt;/font&gt;&lt;br&gt;&lt;br&gt;&lt;br&gt;&lt;br&gt;&lt;br&gt;&lt;br&gt;&lt;br&gt;&lt;br&gt;&lt;br&gt;&lt;br&gt;&lt;br&gt;&lt;br&gt;&lt;br&gt;&lt;br&gt;&lt;br&gt;&lt;br&gt;&lt;br&gt;&lt;br&gt;&lt;br&gt;&lt;br&gt;&lt;br&gt;&lt;br&gt;&lt;br&gt;&lt;br&gt;&lt;br&gt;&lt;br&gt;&lt;br&gt;&lt;br&gt;&lt;br&gt;&lt;br&gt;&lt;/i&gt;" style="rounded=0;whiteSpace=wrap;html=1;dashed=1;strokeColor=#B3B3B3;fillColor=none;fontColor=#333333;fontFamily=Verdana;" parent="1" vertex="1">
          <mxGeometry x="680" y="80" width="320" height="440" as="geometry" />
        </mxCell>
        <mxCell id="43LEpUkmqykjruBSBFt2-74" value="&lt;i style=&quot;font-size: 10px&quot;&gt;&lt;font color=&quot;#b3b3b3&quot;&gt;Data View&lt;/font&gt;&lt;/i&gt;&lt;div&gt;&lt;i style=&quot;font-size: 10px&quot;&gt;&lt;font color=&quot;#b3b3b3&quot;&gt;&lt;br&gt;&lt;/font&gt;&lt;/i&gt;&lt;/div&gt;&lt;div&gt;&lt;i style=&quot;font-size: 10px&quot;&gt;&lt;font color=&quot;#b3b3b3&quot;&gt;&lt;br&gt;&lt;br&gt;&lt;br&gt;&lt;br&gt;&lt;br&gt;&lt;br&gt;&lt;br&gt;&lt;br&gt;&lt;br&gt;&lt;br&gt;&lt;br&gt;&lt;br&gt;&lt;br&gt;&lt;br&gt;&lt;br&gt;&lt;/font&gt;&lt;br&gt;&lt;/i&gt;&lt;/div&gt;&lt;div&gt;&lt;i style=&quot;font-size: 10px&quot;&gt;&lt;br&gt;&lt;/i&gt;&lt;/div&gt;&lt;div&gt;&lt;i style=&quot;font-size: 10px&quot;&gt;&lt;br&gt;&lt;/i&gt;&lt;/div&gt;&lt;div&gt;&lt;i style=&quot;font-size: 10px&quot;&gt;&lt;br&gt;&lt;/i&gt;&lt;/div&gt;" style="rounded=0;whiteSpace=wrap;html=1;dashed=1;strokeColor=#B3B3B3;fillColor=none;fontColor=#333333;fontFamily=Verdana;" parent="1" vertex="1">
          <mxGeometry x="480" y="560" width="840" height="320" as="geometry" />
        </mxCell>
        <mxCell id="43LEpUkmqykjruBSBFt2-14" style="edgeStyle=orthogonalEdgeStyle;rounded=0;orthogonalLoop=1;jettySize=auto;html=1;fontFamily=Verdana;fontSize=10;fontColor=#666666;startArrow=none;startFill=0;endArrow=none;endFill=0;strokeColor=#666666;curved=1;" parent="1" edge="1">
          <mxGeometry relative="1" as="geometry">
            <mxPoint x="1000" y="300" as="targetPoint" />
            <mxPoint x="680" y="300" as="sourcePoint" />
          </mxGeometry>
        </mxCell>
        <mxCell id="43LEpUkmqykjruBSBFt2-27" value="&lt;i&gt;S3 API (spark.read.json)&lt;/i&gt;" style="edgeLabel;html=1;align=center;verticalAlign=middle;resizable=0;points=[];fontSize=10;fontFamily=Verdana;fontColor=#666666;" parent="43LEpUkmqykjruBSBFt2-14" vertex="1" connectable="0">
          <mxGeometry x="0.1009" y="2" relative="1" as="geometry">
            <mxPoint x="-20" y="-8" as="offset" />
          </mxGeometry>
        </mxCell>
        <mxCell id="43LEpUkmqykjruBSBFt2-24" value="&lt;i&gt;S3 API&lt;/i&gt;" style="edgeStyle=orthogonalEdgeStyle;curved=1;rounded=0;orthogonalLoop=1;jettySize=auto;html=1;fontFamily=Verdana;fontSize=10;fontColor=#666666;startArrow=none;startFill=0;endArrow=none;endFill=0;strokeColor=#666666;entryX=1;entryY=0.5;entryDx=0;entryDy=0;" parent="1" source="nlrlFGh5VtMJapMN1K8R-7" target="43LEpUkmqykjruBSBFt2-17" edge="1">
          <mxGeometry y="-10" relative="1" as="geometry">
            <mxPoint as="offset" />
          </mxGeometry>
        </mxCell>
        <mxCell id="JX67_reVR-qpUP16krjz-19" value="" style="edgeStyle=orthogonalEdgeStyle;rounded=0;orthogonalLoop=1;jettySize=auto;html=1;fontFamily=Verdana;fontSize=8;fontColor=#B3B3B3;startArrow=none;startFill=0;endArrow=blockThin;endFill=1;strokeColor=#666666;curved=1;entryX=0.5;entryY=0;entryDx=0;entryDy=0;" parent="1" source="v0f8w1BDAQ7m54HIx2ON-10" target="GHlB2KVPvjXBRH8V2S13-7" edge="1">
          <mxGeometry relative="1" as="geometry">
            <Array as="points">
              <mxPoint x="560" y="550" />
              <mxPoint x="800" y="550" />
            </Array>
            <mxPoint x="670" y="640" as="targetPoint" />
          </mxGeometry>
        </mxCell>
        <mxCell id="Ms5KzgWXCVhli3xs8acB-4" value="&lt;font color=&quot;#666666&quot; style=&quot;font-size: 10px;&quot; face=&quot;Verdana&quot;&gt;&lt;i&gt;S3 API (list_object,read_parquet)&lt;/i&gt;&lt;/font&gt;" style="edgeLabel;html=1;align=center;verticalAlign=middle;resizable=0;points=[];fontSize=8;" vertex="1" connectable="0" parent="JX67_reVR-qpUP16krjz-19">
          <mxGeometry x="0.1459" y="1" relative="1" as="geometry">
            <mxPoint x="-15" y="-9" as="offset" />
          </mxGeometry>
        </mxCell>
        <mxCell id="nlrlFGh5VtMJapMN1K8R-7" value="&lt;i style=&quot;font-size: 10px&quot;&gt;&lt;font color=&quot;#b3b3b3&quot;&gt;Data Stores&lt;br&gt;&lt;br&gt;&lt;br&gt;&lt;br&gt;&lt;br&gt;&lt;br&gt;&lt;br&gt;&lt;br&gt;&lt;br&gt;&lt;br&gt;&lt;br&gt;&lt;br&gt;&lt;br&gt;&lt;br&gt;&lt;br&gt;&lt;br&gt;&lt;br&gt;&lt;br&gt;&lt;br&gt;&lt;br&gt;&lt;br&gt;&lt;br&gt;&lt;br&gt;&lt;br&gt;&lt;br&gt;&lt;br&gt;&lt;br&gt;&lt;br&gt;&lt;br&gt;&lt;/font&gt;&lt;br&gt;&lt;/i&gt;" style="rounded=0;whiteSpace=wrap;html=1;strokeColor=#B3B3B3;fillColor=none;fontColor=#333333;fontFamily=Verdana;dashed=1;" parent="1" vertex="1">
          <mxGeometry x="480" y="80" width="160" height="440" as="geometry" />
        </mxCell>
        <mxCell id="43LEpUkmqykjruBSBFt2-1" value="GCP S3" style="sketch=0;outlineConnect=0;fontColor=#B3B3B3;fillColor=#B3B3B3;strokeColor=none;dashed=0;verticalLabelPosition=bottom;verticalAlign=top;align=center;html=1;fontSize=8;fontStyle=3;aspect=fixed;pointerEvents=1;shape=mxgraph.aws4.bucket;fontFamily=Verdana;" parent="1" vertex="1">
          <mxGeometry x="541.73" y="201" width="36.54" height="38" as="geometry" />
        </mxCell>
        <mxCell id="43LEpUkmqykjruBSBFt2-55" style="edgeStyle=orthogonalEdgeStyle;curved=1;rounded=0;orthogonalLoop=1;jettySize=auto;html=1;fontFamily=Verdana;fontSize=8;fontColor=#333333;startArrow=none;startFill=0;endArrow=none;endFill=0;strokeColor=#666666;" parent="1" source="43LEpUkmqykjruBSBFt2-4" edge="1">
          <mxGeometry relative="1" as="geometry">
            <mxPoint x="640" y="300" as="targetPoint" />
            <Array as="points">
              <mxPoint x="610" y="300" />
              <mxPoint x="610" y="300" />
            </Array>
          </mxGeometry>
        </mxCell>
        <mxCell id="43LEpUkmqykjruBSBFt2-57" style="edgeStyle=orthogonalEdgeStyle;curved=1;rounded=0;orthogonalLoop=1;jettySize=auto;html=1;entryX=0;entryY=0.5;entryDx=0;entryDy=0;fontFamily=Verdana;fontSize=8;fontColor=#333333;startArrow=blockThin;startFill=1;endArrow=none;endFill=0;strokeColor=#666666;" parent="1" target="nlrlFGh5VtMJapMN1K8R-7" edge="1">
          <mxGeometry relative="1" as="geometry">
            <Array as="points">
              <mxPoint x="530" y="300" />
              <mxPoint x="530" y="300" />
            </Array>
            <mxPoint x="540" y="300" as="sourcePoint" />
          </mxGeometry>
        </mxCell>
        <mxCell id="43LEpUkmqykjruBSBFt2-4" value="AWS S3&lt;br&gt;&lt;font style=&quot;font-size: 5px&quot;&gt;s3://fdio-logs-s3-cloudfront-index&lt;/font&gt;" style="sketch=0;outlineConnect=0;fontColor=#666666;fillColor=#7EA6E0;strokeColor=#7EA6E0;dashed=0;verticalLabelPosition=bottom;verticalAlign=top;align=center;html=1;fontSize=8;fontStyle=3;aspect=fixed;pointerEvents=1;shape=mxgraph.aws4.bucket;fontFamily=Verdana;shadow=0;" parent="1" vertex="1">
          <mxGeometry x="541.73" y="280" width="36.54" height="38" as="geometry" />
        </mxCell>
        <mxCell id="43LEpUkmqykjruBSBFt2-8" value="Azure S3" style="sketch=0;outlineConnect=0;fontColor=#B3B3B3;fillColor=#B3B3B3;strokeColor=none;dashed=0;verticalLabelPosition=bottom;verticalAlign=top;align=center;html=1;fontSize=8;fontStyle=3;aspect=fixed;pointerEvents=1;shape=mxgraph.aws4.bucket;fontFamily=Verdana;" parent="1" vertex="1">
          <mxGeometry x="541.73" y="120" width="36.54" height="38" as="geometry" />
        </mxCell>
        <mxCell id="JX67_reVR-qpUP16krjz-27" value="" style="sketch=0;outlineConnect=0;fontColor=#333333;gradientColor=none;fillColor=#CC0000;strokeColor=none;dashed=0;verticalLabelPosition=bottom;verticalAlign=top;align=center;html=1;fontSize=8;fontStyle=0;aspect=fixed;pointerEvents=1;shape=mxgraph.aws4.glue_crawlers;rounded=0;shadow=0;glass=0;fontFamily=Verdana;strokeWidth=1;labelBackgroundColor=default;" parent="1" vertex="1">
          <mxGeometry x="1130" y="265" width="10" height="10" as="geometry" />
        </mxCell>
        <mxCell id="43LEpUkmqykjruBSBFt2-12" style="edgeStyle=orthogonalEdgeStyle;rounded=0;orthogonalLoop=1;jettySize=auto;html=1;fontFamily=Verdana;fontSize=10;fontColor=#666666;startArrow=blockThin;startFill=1;endArrow=none;endFill=0;strokeColor=#666666;curved=1;exitX=0;exitY=0.5;exitDx=0;exitDy=0;exitPerimeter=0;opacity=30;dashed=1;" parent="1" source="GHlB2KVPvjXBRH8V2S13-15" edge="1">
          <mxGeometry relative="1" as="geometry">
            <mxPoint x="680" y="300" as="targetPoint" />
            <Array as="points">
              <mxPoint x="740" y="158" />
              <mxPoint x="740" y="300" />
            </Array>
            <mxPoint x="811.8699999999999" y="174.0204081632653" as="sourcePoint" />
          </mxGeometry>
        </mxCell>
        <mxCell id="43LEpUkmqykjruBSBFt2-26" value="&lt;font style=&quot;font-size: 10px&quot;&gt;&lt;i&gt;S3 Select API&lt;/i&gt;&lt;/font&gt;" style="edgeLabel;html=1;align=center;verticalAlign=middle;resizable=0;points=[];fontSize=8;fontFamily=Verdana;fontColor=#666666;textOpacity=30;" parent="43LEpUkmqykjruBSBFt2-12" vertex="1" connectable="0">
          <mxGeometry x="-0.3571" relative="1" as="geometry">
            <mxPoint x="3" y="61" as="offset" />
          </mxGeometry>
        </mxCell>
        <mxCell id="43LEpUkmqykjruBSBFt2-35" value="" style="edgeStyle=orthogonalEdgeStyle;curved=1;rounded=0;orthogonalLoop=1;jettySize=auto;html=1;fontFamily=Verdana;fontSize=10;fontColor=#666666;startArrow=none;startFill=0;endArrow=none;endFill=0;strokeColor=#666666;entryX=1;entryY=0.5;entryDx=0;entryDy=0;exitX=1;exitY=0.5;exitDx=0;exitDy=0;exitPerimeter=0;opacity=30;dashed=1;" parent="1" source="GHlB2KVPvjXBRH8V2S13-15" target="90EX6WXlLNK09aK0P_v6-12" edge="1">
          <mxGeometry relative="1" as="geometry">
            <Array as="points">
              <mxPoint x="940" y="158" />
              <mxPoint x="940" y="300" />
            </Array>
            <mxPoint x="868.1199999999999" y="174.0204081632653" as="sourcePoint" />
          </mxGeometry>
        </mxCell>
        <mxCell id="43LEpUkmqykjruBSBFt2-39" value="&lt;font color=&quot;#666666&quot; style=&quot;font-size: 10px&quot;&gt;&lt;i style=&quot;font-size: 10px&quot;&gt;S3 Select API&lt;/i&gt;&lt;/font&gt;" style="edgeLabel;html=1;align=center;verticalAlign=middle;resizable=0;points=[];fontSize=10;fontFamily=Verdana;fontColor=#B3B3B3;textOpacity=30;" parent="43LEpUkmqykjruBSBFt2-35" vertex="1" connectable="0">
          <mxGeometry x="-0.1938" y="-4" relative="1" as="geometry">
            <mxPoint x="4" y="39" as="offset" />
          </mxGeometry>
        </mxCell>
        <mxCell id="43LEpUkmqykjruBSBFt2-15" style="edgeStyle=none;rounded=0;orthogonalLoop=1;jettySize=auto;html=1;exitX=0.5;exitY=1;exitDx=0;exitDy=0;dashed=1;fontFamily=Verdana;fontSize=10;fontColor=#666666;startArrow=classic;startFill=1;endArrow=none;endFill=0;strokeColor=#666666;" parent="1" source="nlrlFGh5VtMJapMN1K8R-7" target="nlrlFGh5VtMJapMN1K8R-7" edge="1">
          <mxGeometry relative="1" as="geometry" />
        </mxCell>
        <mxCell id="43LEpUkmqykjruBSBFt2-17" value="&lt;i style=&quot;font-size: 10px&quot;&gt;&lt;font color=&quot;#b3b3b3&quot;&gt;&lt;br&gt;Data Producers&lt;br&gt;&lt;/font&gt;&lt;br&gt;&lt;br&gt;&lt;br&gt;&lt;br&gt;&lt;br&gt;&lt;br&gt;&lt;br&gt;&lt;br&gt;&lt;br&gt;&lt;br&gt;&lt;br&gt;&lt;br&gt;&lt;br&gt;&lt;br&gt;&lt;br&gt;&lt;br&gt;&lt;br&gt;&lt;br&gt;&lt;br&gt;&lt;br&gt;&lt;br&gt;&lt;br&gt;&lt;br&gt;&lt;br&gt;&lt;br&gt;&lt;br&gt;&lt;br&gt;&lt;br&gt;&lt;br&gt;&lt;br&gt;&lt;/i&gt;" style="rounded=0;whiteSpace=wrap;html=1;strokeColor=#B3B3B3;fillColor=none;fontColor=#ffffff;fontFamily=Verdana;dashed=1;" parent="1" vertex="1">
          <mxGeometry x="320" y="80" width="120" height="440" as="geometry" />
        </mxCell>
        <mxCell id="43LEpUkmqykjruBSBFt2-59" style="edgeStyle=orthogonalEdgeStyle;curved=1;rounded=0;orthogonalLoop=1;jettySize=auto;html=1;fontFamily=Verdana;fontSize=8;fontColor=#333333;startArrow=none;startFill=0;endArrow=none;endFill=0;strokeColor=#666666;exitX=1.001;exitY=0.499;exitDx=0;exitDy=0;exitPerimeter=0;" parent="1" source="43LEpUkmqykjruBSBFt2-28" edge="1">
          <mxGeometry relative="1" as="geometry">
            <mxPoint x="440" y="380" as="targetPoint" />
            <mxPoint x="393.75" y="431.0000000000001" as="sourcePoint" />
            <Array as="points">
              <mxPoint x="420" y="430" />
              <mxPoint x="420" y="380" />
            </Array>
          </mxGeometry>
        </mxCell>
        <mxCell id="JX67_reVR-qpUP16krjz-21" style="edgeStyle=orthogonalEdgeStyle;rounded=0;orthogonalLoop=1;jettySize=auto;html=1;fontFamily=Verdana;fontSize=8;fontColor=#B3B3B3;startArrow=none;startFill=0;endArrow=none;endFill=0;strokeColor=#666666;elbow=vertical;" parent="1" source="43LEpUkmqykjruBSBFt2-28" edge="1">
          <mxGeometry relative="1" as="geometry">
            <mxPoint x="1000" y="430" as="targetPoint" />
            <Array as="points">
              <mxPoint x="1000" y="430" />
            </Array>
          </mxGeometry>
        </mxCell>
        <mxCell id="JX67_reVR-qpUP16krjz-25" value="&lt;font style=&quot;font-size: 10px&quot;&gt;file:///&lt;/font&gt;" style="edgeLabel;html=1;align=center;verticalAlign=middle;resizable=0;points=[];fontSize=12;fontFamily=Verdana;fontColor=#666666;fontStyle=2" parent="JX67_reVR-qpUP16krjz-21" vertex="1" connectable="0">
          <mxGeometry x="0.4405" y="1" relative="1" as="geometry">
            <mxPoint x="10" y="-9" as="offset" />
          </mxGeometry>
        </mxCell>
        <mxCell id="JX67_reVR-qpUP16krjz-22" style="edgeStyle=orthogonalEdgeStyle;curved=1;rounded=0;orthogonalLoop=1;jettySize=auto;html=1;fontFamily=Verdana;fontSize=8;fontColor=#B3B3B3;startArrow=none;startFill=0;endArrow=blockThin;endFill=1;strokeColor=#666666;entryX=-0.167;entryY=0.525;entryDx=0;entryDy=0;entryPerimeter=0;" parent="1" target="v0f8w1BDAQ7m54HIx2ON-7" edge="1">
          <mxGeometry relative="1" as="geometry">
            <mxPoint x="440" y="380" as="sourcePoint" />
          </mxGeometry>
        </mxCell>
        <mxCell id="43LEpUkmqykjruBSBFt2-28" value="&lt;font style=&quot;font-size: 8px&quot;&gt;&lt;i&gt;&lt;br&gt;&lt;br&gt;&lt;br&gt;&lt;br&gt;&lt;br&gt;**/*.info.json&lt;/i&gt;&lt;/font&gt;" style="shape=note;whiteSpace=wrap;html=1;backgroundOutline=1;darkOpacity=0.05;rounded=0;shadow=0;glass=0;fontFamily=Verdana;fontSize=10;fontColor=#666666;strokeColor=#67AB9F;strokeWidth=2;fillColor=none;size=12;fontStyle=1" parent="1" vertex="1">
          <mxGeometry x="366.25" y="410" width="27.5" height="40" as="geometry" />
        </mxCell>
        <mxCell id="43LEpUkmqykjruBSBFt2-61" style="edgeStyle=orthogonalEdgeStyle;curved=1;rounded=0;orthogonalLoop=1;jettySize=auto;html=1;entryX=1;entryY=0.5;entryDx=0;entryDy=0;fontFamily=Verdana;fontSize=8;fontColor=#333333;startArrow=none;startFill=0;endArrow=none;endFill=0;strokeColor=#666666;exitX=1;exitY=0.5;exitDx=0;exitDy=0;" parent="1" source="43LEpUkmqykjruBSBFt2-31" target="43LEpUkmqykjruBSBFt2-17" edge="1">
          <mxGeometry relative="1" as="geometry">
            <Array as="points">
              <mxPoint x="420" y="253" />
              <mxPoint x="420" y="300" />
            </Array>
          </mxGeometry>
        </mxCell>
        <mxCell id="43LEpUkmqykjruBSBFt2-31" value="&lt;i&gt;&lt;font style=&quot;font-size: 8px&quot;&gt;jenkins.fd.io&lt;/font&gt;&lt;/i&gt;" style="shape=image;html=1;verticalAlign=top;verticalLabelPosition=bottom;labelBackgroundColor=none;imageAspect=0;aspect=fixed;image=https://cdn0.iconfinder.com/data/icons/font-awesome-brands-vol-1/512/jenkins-128.png;rounded=0;shadow=0;glass=0;fontFamily=Verdana;fontSize=10;fontColor=#666666;strokeColor=#B3B3B3;strokeWidth=2;fillColor=none;gradientColor=none;opacity=66;imageBorder=none;fontStyle=1;imageBackground=none;" parent="1" vertex="1">
          <mxGeometry x="358" y="231" width="44" height="44" as="geometry" />
        </mxCell>
        <mxCell id="43LEpUkmqykjruBSBFt2-36" value="" style="sketch=0;points=[[0,0,0],[0.25,0,0],[0.5,0,0],[0.75,0,0],[1,0,0],[0,1,0],[0.25,1,0],[0.5,1,0],[0.75,1,0],[1,1,0],[0,0.25,0],[0,0.5,0],[0,0.75,0],[1,0.25,0],[1,0.5,0],[1,0.75,0]];outlineConnect=0;fontColor=#ffffff;gradientDirection=north;fillColor=none;strokeColor=#CC0000;dashed=0;verticalLabelPosition=bottom;verticalAlign=top;align=center;html=1;fontSize=12;fontStyle=0;aspect=fixed;shape=mxgraph.aws4.resourceIcon;resIcon=mxgraph.aws4.glue;rounded=0;shadow=0;glass=0;fontFamily=Verdana;" parent="1" vertex="1">
          <mxGeometry x="1256" y="80" width="64" height="64" as="geometry" />
        </mxCell>
        <mxCell id="43LEpUkmqykjruBSBFt2-46" style="edgeStyle=orthogonalEdgeStyle;curved=1;rounded=0;orthogonalLoop=1;jettySize=auto;html=1;fontFamily=Verdana;fontSize=8;fontColor=#666666;startArrow=blockThin;startFill=1;endArrow=none;endFill=0;strokeColor=#B3B3B3;opacity=30;" parent="1" source="43LEpUkmqykjruBSBFt2-37" target="43LEpUkmqykjruBSBFt2-44" edge="1">
          <mxGeometry relative="1" as="geometry">
            <Array as="points">
              <mxPoint x="1170" y="298" />
              <mxPoint x="1170" y="298" />
            </Array>
          </mxGeometry>
        </mxCell>
        <mxCell id="43LEpUkmqykjruBSBFt2-79" style="edgeStyle=orthogonalEdgeStyle;orthogonalLoop=1;jettySize=auto;html=1;fontFamily=Verdana;fontSize=16;fontColor=#666666;startArrow=none;startFill=0;endArrow=none;endFill=0;strokeColor=#666666;rounded=0;" parent="1" edge="1">
          <mxGeometry relative="1" as="geometry">
            <mxPoint x="680" y="459" as="targetPoint" />
            <Array as="points" />
            <mxPoint x="1000" y="459" as="sourcePoint" />
          </mxGeometry>
        </mxCell>
        <mxCell id="JX67_reVR-qpUP16krjz-14" value="&lt;i style=&quot;color: rgb(102 , 102 , 102) ; font-family: &amp;quot;verdana&amp;quot; ; font-size: 10px&quot;&gt;S3 API (to_parquet)&lt;/i&gt;" style="edgeLabel;html=1;align=center;verticalAlign=middle;resizable=0;points=[];fontSize=8;" parent="43LEpUkmqykjruBSBFt2-79" vertex="1" connectable="0">
          <mxGeometry x="0.1763" y="-2" relative="1" as="geometry">
            <mxPoint x="26" y="-7" as="offset" />
          </mxGeometry>
        </mxCell>
        <mxCell id="JX67_reVR-qpUP16krjz-6" style="edgeStyle=orthogonalEdgeStyle;rounded=0;orthogonalLoop=1;jettySize=auto;html=1;fontSize=8;startArrow=none;startFill=0;endArrow=none;endFill=0;strokeColor=#B3B3B3;curved=1;opacity=30;dashed=1;" parent="1" source="43LEpUkmqykjruBSBFt2-37" edge="1">
          <mxGeometry relative="1" as="geometry">
            <mxPoint x="1238.4999999999998" y="320" as="sourcePoint" />
            <mxPoint x="1000" y="459" as="targetPoint" />
            <Array as="points">
              <mxPoint x="1240" y="459" />
            </Array>
          </mxGeometry>
        </mxCell>
        <mxCell id="JX67_reVR-qpUP16krjz-4" style="edgeStyle=orthogonalEdgeStyle;rounded=0;orthogonalLoop=1;jettySize=auto;html=1;endArrow=none;endFill=0;strokeColor=#666666;exitX=0.5;exitY=1;exitDx=0;exitDy=0;exitPerimeter=0;curved=1;" parent="1" source="43LEpUkmqykjruBSBFt2-44" edge="1">
          <mxGeometry relative="1" as="geometry">
            <mxPoint x="1000" y="459" as="targetPoint" />
            <mxPoint x="1100.2781818181818" y="458.9999999999999" as="sourcePoint" />
            <Array as="points">
              <mxPoint x="1120" y="459" />
            </Array>
          </mxGeometry>
        </mxCell>
        <mxCell id="JX67_reVR-qpUP16krjz-7" style="edgeStyle=orthogonalEdgeStyle;rounded=0;orthogonalLoop=1;jettySize=auto;html=1;fontSize=8;startArrow=none;startFill=0;endArrow=blockThin;endFill=1;strokeColor=#B3B3B3;opacity=30;dashed=1;" parent="1" source="43LEpUkmqykjruBSBFt2-37" target="JX67_reVR-qpUP16krjz-2" edge="1">
          <mxGeometry relative="1" as="geometry">
            <Array as="points" />
          </mxGeometry>
        </mxCell>
        <mxCell id="JX67_reVR-qpUP16krjz-26" value="" style="sketch=0;outlineConnect=0;fontColor=#333333;gradientColor=none;fillColor=#CC0000;strokeColor=none;dashed=0;verticalLabelPosition=bottom;verticalAlign=top;align=center;html=1;fontSize=8;fontStyle=0;aspect=fixed;pointerEvents=1;shape=mxgraph.aws4.glue_crawlers;rounded=0;shadow=0;glass=0;fontFamily=Verdana;strokeWidth=1;labelBackgroundColor=default;" parent="1" vertex="1">
          <mxGeometry x="1100" y="265" width="10" height="10" as="geometry" />
        </mxCell>
        <mxCell id="43LEpUkmqykjruBSBFt2-37" value="&lt;font style=&quot;font-size: 8px&quot;&gt;&lt;i style=&quot;font-size: 8px&quot;&gt;&lt;b style=&quot;font-size: 8px&quot;&gt;AWS GLUE Catalog&lt;/b&gt;&lt;/i&gt;&lt;/font&gt;" style="sketch=0;outlineConnect=0;fontColor=#B3B3B3;gradientColor=none;fillColor=#B3B3B3;strokeColor=none;dashed=0;verticalLabelPosition=bottom;verticalAlign=top;align=center;html=1;fontSize=8;fontStyle=0;aspect=fixed;pointerEvents=1;shape=mxgraph.aws4.glue_data_catalog;rounded=0;shadow=0;glass=0;fontFamily=Verdana;labelBackgroundColor=#FFFFFF;opacity=30;textOpacity=30;" parent="1" vertex="1">
          <mxGeometry x="1221.29" y="278" width="36.92" height="40" as="geometry" />
        </mxCell>
        <mxCell id="43LEpUkmqykjruBSBFt2-56" style="edgeStyle=orthogonalEdgeStyle;curved=1;rounded=0;orthogonalLoop=1;jettySize=auto;html=1;fontFamily=Verdana;fontSize=8;fontColor=#333333;startArrow=none;startFill=0;endArrow=none;endFill=0;strokeColor=#666666;dashed=1;opacity=30;" parent="1" source="v0f8w1BDAQ7m54HIx2ON-7" edge="1">
          <mxGeometry relative="1" as="geometry">
            <mxPoint x="640" y="300" as="targetPoint" />
            <Array as="points">
              <mxPoint x="610" y="379" />
              <mxPoint x="610" y="300" />
            </Array>
            <mxPoint x="598.27" y="420" as="sourcePoint" />
          </mxGeometry>
        </mxCell>
        <mxCell id="43LEpUkmqykjruBSBFt2-62" style="edgeStyle=orthogonalEdgeStyle;curved=1;rounded=0;orthogonalLoop=1;jettySize=auto;html=1;fontFamily=Verdana;fontSize=8;fontColor=#333333;startArrow=blockThin;startFill=1;endArrow=none;endFill=0;strokeColor=#666666;" parent="1" source="43LEpUkmqykjruBSBFt2-44" edge="1">
          <mxGeometry relative="1" as="geometry">
            <mxPoint x="1040" y="300" as="targetPoint" />
            <Array as="points">
              <mxPoint x="1090" y="300" />
              <mxPoint x="1090" y="300" />
            </Array>
          </mxGeometry>
        </mxCell>
        <mxCell id="43LEpUkmqykjruBSBFt2-44" value="&lt;i style=&quot;font-size: 8px&quot;&gt;&lt;b style=&quot;font-size: 8px&quot;&gt;&lt;font color=&quot;#666666&quot; style=&quot;font-size: 8px&quot;&gt;ETL Crawler&lt;/font&gt;&lt;/b&gt;&lt;/i&gt;" style="sketch=0;outlineConnect=0;fontColor=#333333;fillColor=#CC0000;strokeColor=none;dashed=0;verticalLabelPosition=bottom;verticalAlign=top;align=center;html=1;fontSize=8;fontStyle=0;aspect=fixed;pointerEvents=1;shape=mxgraph.aws4.glue_crawlers;rounded=0;shadow=0;glass=0;fontFamily=Verdana;strokeWidth=1;labelBackgroundColor=default;" parent="1" vertex="1">
          <mxGeometry x="1100" y="280" width="40" height="40" as="geometry" />
        </mxCell>
        <mxCell id="43LEpUkmqykjruBSBFt2-70" value="" style="edgeStyle=orthogonalEdgeStyle;curved=1;rounded=0;orthogonalLoop=1;jettySize=auto;html=1;dashed=1;fontFamily=Verdana;fontSize=10;fontColor=#666666;startArrow=none;startFill=0;endArrow=blockThin;endFill=1;strokeColor=#666666;" parent="1" edge="1">
          <mxGeometry relative="1" as="geometry">
            <Array as="points">
              <mxPoint x="119" y="431" />
              <mxPoint x="119" y="431" />
            </Array>
            <mxPoint x="118.70000000000005" y="401.78116450730386" as="targetPoint" />
          </mxGeometry>
        </mxCell>
        <mxCell id="43LEpUkmqykjruBSBFt2-73" value="validate" style="edgeLabel;html=1;align=center;verticalAlign=middle;resizable=0;points=[];fontSize=10;fontFamily=Verdana;fontColor=#666666;fontStyle=2" parent="43LEpUkmqykjruBSBFt2-70" vertex="1" connectable="0">
          <mxGeometry x="-0.2262" y="1" relative="1" as="geometry">
            <mxPoint x="1" y="-18" as="offset" />
          </mxGeometry>
        </mxCell>
        <mxCell id="43LEpUkmqykjruBSBFt2-71" value="" style="edgeStyle=orthogonalEdgeStyle;curved=1;rounded=0;orthogonalLoop=1;jettySize=auto;html=1;dashed=1;fontFamily=Verdana;fontSize=10;fontColor=#666666;startArrow=none;startFill=0;endArrow=blockThin;endFill=1;strokeColor=#666666;" parent="1" edge="1">
          <mxGeometry relative="1" as="geometry">
            <mxPoint x="118.70000000000005" y="504" as="sourcePoint" />
          </mxGeometry>
        </mxCell>
        <mxCell id="43LEpUkmqykjruBSBFt2-72" value="validate" style="edgeLabel;html=1;align=center;verticalAlign=middle;resizable=0;points=[];fontSize=10;fontFamily=Verdana;fontColor=#666666;fontStyle=2" parent="43LEpUkmqykjruBSBFt2-71" vertex="1" connectable="0">
          <mxGeometry x="-0.247" y="2" relative="1" as="geometry">
            <mxPoint x="-2" y="15" as="offset" />
          </mxGeometry>
        </mxCell>
        <mxCell id="v0f8w1BDAQ7m54HIx2ON-7" value="&lt;font&gt;&lt;b&gt;&lt;i&gt;&lt;span style=&quot;font-size: 8px&quot;&gt;FS&lt;/span&gt;&lt;br&gt;&lt;font style=&quot;font-size: 5px&quot;&gt;prod-volume-data1-1&lt;/font&gt;&lt;/i&gt;&lt;/b&gt;&lt;/font&gt;" style="sketch=0;pointerEvents=1;shadow=0;dashed=0;html=1;strokeColor=none;fillColor=#CC0000;aspect=fixed;labelPosition=center;verticalLabelPosition=bottom;verticalAlign=top;align=center;outlineConnect=0;shape=mxgraph.vvd.storage;fontFamily=Verdana;fontSize=5;fontColor=#666666;" parent="1" vertex="1">
          <mxGeometry x="545" y="359" width="30" height="40" as="geometry" />
        </mxCell>
        <mxCell id="JX67_reVR-qpUP16krjz-3" value="" style="edgeStyle=orthogonalEdgeStyle;curved=1;rounded=0;orthogonalLoop=1;jettySize=auto;html=1;strokeColor=#666666;endArrow=blockThin;endFill=1;" parent="1" target="v0f8w1BDAQ7m54HIx2ON-10" edge="1">
          <mxGeometry relative="1" as="geometry">
            <mxPoint x="680" y="459" as="sourcePoint" />
            <mxPoint x="578.2659963229454" y="459" as="targetPoint" />
            <Array as="points" />
          </mxGeometry>
        </mxCell>
        <mxCell id="v0f8w1BDAQ7m54HIx2ON-10" value="AWS S3 (CSIT)&lt;br&gt;&lt;font style=&quot;font-size: 5px&quot;&gt;s3://&lt;/font&gt;&lt;span style=&quot;font-size: 5px&quot;&gt;csit-docs-s3-cloudfront-index&lt;/span&gt;" style="sketch=0;outlineConnect=0;fontColor=#666666;fillColor=#f0a30a;strokeColor=#BD7000;dashed=0;verticalLabelPosition=bottom;verticalAlign=top;align=center;html=1;fontSize=8;fontStyle=3;aspect=fixed;pointerEvents=1;shape=mxgraph.aws4.bucket;fontFamily=Verdana;shadow=0;" parent="1" vertex="1">
          <mxGeometry x="541.73" y="440" width="36.54" height="38" as="geometry" />
        </mxCell>
        <mxCell id="v0f8w1BDAQ7m54HIx2ON-13" value="&lt;p style=&quot;line-height: 1&quot;&gt;&lt;/p&gt;&lt;h1&gt;CSIT ETL for UTI&lt;/h1&gt;&lt;p style=&quot;line-height: 2&quot;&gt;&lt;span style=&quot;font-size: 10px ; font-weight: normal&quot;&gt;author: Peter Mikus &amp;lt;pmikus@cisco.com&amp;gt;&lt;br&gt;&lt;/span&gt;project: fd.io/csit&lt;/p&gt;&lt;p style=&quot;line-height: 2&quot;&gt;revision: 1.1&lt;/p&gt;&lt;p style=&quot;line-height: 2&quot;&gt;date: 2024-12-12&lt;/p&gt;&lt;p&gt;&lt;/p&gt;" style="text;html=1;strokeColor=none;fillColor=none;spacing=5;spacingTop=-20;whiteSpace=wrap;overflow=hidden;rounded=0;dashed=1;labelBackgroundColor=default;fontFamily=Verdana;fontSize=10;fontColor=#B3B3B3;" parent="1" vertex="1">
          <mxGeometry x="10" y="10" width="310" height="190" as="geometry" />
        </mxCell>
        <mxCell id="JX67_reVR-qpUP16krjz-2" value="&lt;font style=&quot;font-size: 8px&quot;&gt;&lt;b style=&quot;background-color: rgb(255 , 255 , 255)&quot;&gt;AWS Athena&lt;/b&gt;&lt;/font&gt;" style="sketch=0;points=[[0,0,0],[0.25,0,0],[0.5,0,0],[0.75,0,0],[1,0,0],[0,1,0],[0.25,1,0],[0.5,1,0],[0.75,1,0],[1,1,0],[0,0.25,0],[0,0.5,0],[0,0.75,0],[1,0.25,0],[1,0.5,0],[1,0.75,0]];outlineConnect=0;fontColor=#B3B3B3;gradientDirection=north;fillColor=none;strokeColor=#B3B3B3;dashed=0;verticalLabelPosition=bottom;verticalAlign=top;align=center;html=1;fontSize=12;fontStyle=2;aspect=fixed;shape=mxgraph.aws4.resourceIcon;resIcon=mxgraph.aws4.athena;fontFamily=Verdana;opacity=30;textOpacity=30;" parent="1" vertex="1">
          <mxGeometry x="1220" y="600.25" width="39.5" height="39.5" as="geometry" />
        </mxCell>
        <mxCell id="GHlB2KVPvjXBRH8V2S13-7" value="&lt;font face=&quot;Verdana&quot; color=&quot;#b3b3b3&quot; size=&quot;1&quot;&gt;&lt;i&gt;AWS Beanstalk&lt;br&gt;&lt;br&gt;&lt;br&gt;&lt;br&gt;&lt;br&gt;&lt;br&gt;&lt;br&gt;&lt;br&gt;&lt;br&gt;&lt;br&gt;&lt;br&gt;&lt;/i&gt;&lt;/font&gt;" style="rounded=0;whiteSpace=wrap;html=1;fillColor=none;dashed=1;strokeColor=#B3B3B3;" parent="1" vertex="1">
          <mxGeometry x="600" y="599.75" width="400" height="160.25" as="geometry" />
        </mxCell>
        <mxCell id="JX67_reVR-qpUP16krjz-24" value="" style="endArrow=blockThin;html=1;rounded=0;fontFamily=Verdana;fontSize=8;fontColor=#B3B3B3;strokeColor=#666666;elbow=vertical;edgeStyle=orthogonalEdgeStyle;curved=1;endFill=1;" parent="1" target="43LEpUkmqykjruBSBFt2-44" edge="1">
          <mxGeometry width="50" height="50" relative="1" as="geometry">
            <mxPoint x="1000" y="430" as="sourcePoint" />
            <mxPoint x="770" y="330" as="targetPoint" />
            <Array as="points">
              <mxPoint x="1060" y="430" />
              <mxPoint x="1060" y="300" />
            </Array>
          </mxGeometry>
        </mxCell>
        <mxCell id="JX67_reVR-qpUP16krjz-28" value="" style="sketch=0;outlineConnect=0;fontColor=#333333;gradientColor=none;fillColor=#CC0000;strokeColor=none;dashed=0;verticalLabelPosition=bottom;verticalAlign=top;align=center;html=1;fontSize=8;fontStyle=0;aspect=fixed;pointerEvents=1;shape=mxgraph.aws4.glue_crawlers;rounded=0;shadow=0;glass=0;fontFamily=Verdana;strokeWidth=1;labelBackgroundColor=default;" parent="1" vertex="1">
          <mxGeometry x="1115" y="265" width="10" height="10" as="geometry" />
        </mxCell>
        <mxCell id="JX67_reVR-qpUP16krjz-29" value="" style="sketch=0;outlineConnect=0;fontColor=#333333;gradientColor=none;fillColor=#CC0000;strokeColor=none;dashed=0;verticalLabelPosition=bottom;verticalAlign=top;align=center;html=1;fontSize=8;fontStyle=0;aspect=fixed;pointerEvents=1;shape=mxgraph.aws4.glue_crawlers;rounded=0;shadow=0;glass=0;fontFamily=Verdana;strokeWidth=1;labelBackgroundColor=default;" parent="1" vertex="1">
          <mxGeometry x="1130" y="252" width="10" height="10" as="geometry" />
        </mxCell>
        <mxCell id="JX67_reVR-qpUP16krjz-30" value="" style="sketch=0;outlineConnect=0;fontColor=#333333;gradientColor=none;fillColor=#CC0000;strokeColor=none;dashed=0;verticalLabelPosition=bottom;verticalAlign=top;align=center;html=1;fontSize=8;fontStyle=0;aspect=fixed;pointerEvents=1;shape=mxgraph.aws4.glue_crawlers;rounded=0;shadow=0;glass=0;fontFamily=Verdana;strokeWidth=1;labelBackgroundColor=default;" parent="1" vertex="1">
          <mxGeometry x="1100" y="252" width="10" height="10" as="geometry" />
        </mxCell>
        <mxCell id="JX67_reVR-qpUP16krjz-31" value="" style="sketch=0;outlineConnect=0;fontColor=#333333;gradientColor=none;fillColor=#CC0000;strokeColor=none;dashed=0;verticalLabelPosition=bottom;verticalAlign=top;align=center;html=1;fontSize=8;fontStyle=0;aspect=fixed;pointerEvents=1;shape=mxgraph.aws4.glue_crawlers;rounded=0;shadow=0;glass=0;fontFamily=Verdana;strokeWidth=1;labelBackgroundColor=default;" parent="1" vertex="1">
          <mxGeometry x="1115" y="252" width="10" height="10" as="geometry" />
        </mxCell>
        <mxCell id="lklzkgGY1ycGvQAvg5bW-22" style="edgeStyle=orthogonalEdgeStyle;curved=1;rounded=0;orthogonalLoop=1;jettySize=auto;html=1;entryX=0.5;entryY=1;entryDx=0;entryDy=0;entryPerimeter=0;fontFamily=Verdana;fontSize=8;fontColor=#666666;endArrow=blockThin;endFill=1;strokeColor=#B3B3B3;opacity=30;dashed=1;" parent="1" target="JX67_reVR-qpUP16krjz-2" edge="1" source="JX67_reVR-qpUP16krjz-32">
          <mxGeometry relative="1" as="geometry">
            <Array as="points">
              <mxPoint x="1380" y="680" />
              <mxPoint x="1240" y="680" />
            </Array>
            <mxPoint x="1350" y="700" as="sourcePoint" />
          </mxGeometry>
        </mxCell>
        <mxCell id="GHlB2KVPvjXBRH8V2S13-24" style="edgeStyle=orthogonalEdgeStyle;curved=1;rounded=0;orthogonalLoop=1;jettySize=auto;html=1;fontFamily=Verdana;fontSize=8;fontColor=#666666;startArrow=blockThin;startFill=1;endArrow=blockThin;endFill=1;strokeColor=#666666;fillColor=#E6E6E6;" parent="1" source="JX67_reVR-qpUP16krjz-32" target="GHlB2KVPvjXBRH8V2S13-22" edge="1">
          <mxGeometry relative="1" as="geometry">
            <Array as="points">
              <mxPoint x="1380" y="620" />
            </Array>
          </mxGeometry>
        </mxCell>
        <mxCell id="1pL-RuBl31naxhsXHha8-1" value="csit.fd.io" style="edgeLabel;html=1;align=center;verticalAlign=middle;resizable=0;points=[];fontStyle=1;fontFamily=Verdana;fontSize=8;fontColor=#666666;" vertex="1" connectable="0" parent="GHlB2KVPvjXBRH8V2S13-24">
          <mxGeometry x="0.1426" y="8" relative="1" as="geometry">
            <mxPoint x="8" y="-21" as="offset" />
          </mxGeometry>
        </mxCell>
        <mxCell id="JX67_reVR-qpUP16krjz-32" value="" style="sketch=0;outlineConnect=0;fontColor=#232F3E;gradientColor=none;fillColor=#666666;strokeColor=none;dashed=0;verticalLabelPosition=bottom;verticalAlign=top;align=center;html=1;fontSize=12;fontStyle=0;aspect=fixed;pointerEvents=1;shape=mxgraph.aws4.users;labelBackgroundColor=#FFFFFF;fontFamily=Verdana;" parent="1" vertex="1">
          <mxGeometry x="1360" y="720" width="40" height="40" as="geometry" />
        </mxCell>
        <mxCell id="lklzkgGY1ycGvQAvg5bW-3" value="&lt;i style=&quot;font-size: 10px&quot;&gt;&lt;font color=&quot;#b3b3b3&quot;&gt;&lt;br&gt;Data View Code&lt;/font&gt;&lt;/i&gt;&lt;div&gt;&lt;font color=&quot;#b3b3b3&quot;&gt;&lt;span style=&quot;font-size: 10px;&quot;&gt;&lt;i&gt;&lt;br&gt;&lt;/i&gt;&lt;/span&gt;&lt;/font&gt;&lt;/div&gt;&lt;div&gt;&lt;font color=&quot;#b3b3b3&quot;&gt;&lt;span style=&quot;font-size: 10px;&quot;&gt;&lt;i&gt;&lt;br&gt;&lt;/i&gt;&lt;/span&gt;&lt;/font&gt;&lt;/div&gt;&lt;div&gt;&lt;br&gt;&lt;/div&gt;&lt;div&gt;&lt;div&gt;&lt;i style=&quot;font-size: 10px&quot;&gt;&lt;font color=&quot;#b3b3b3&quot;&gt;&lt;br&gt;&lt;/font&gt;&lt;/i&gt;&lt;/div&gt;&lt;div&gt;&lt;i style=&quot;font-size: 10px&quot;&gt;&lt;font color=&quot;#b3b3b3&quot;&gt;&lt;br&gt;&lt;/font&gt;&lt;br&gt;&lt;br&gt;&lt;br&gt;&lt;br&gt;&lt;br&gt;&lt;br&gt;&lt;br&gt;&lt;br&gt;&lt;br&gt;&lt;br&gt;&lt;br&gt;&lt;br&gt;&lt;br&gt;&lt;br&gt;&lt;br&gt;&lt;br&gt;&lt;/i&gt;&lt;/div&gt;&lt;/div&gt;" style="rounded=0;whiteSpace=wrap;html=1;strokeColor=#B3B3B3;fillColor=none;fontColor=#ffffff;fontFamily=Verdana;dashed=1;" parent="1" vertex="1">
          <mxGeometry x="320" y="560" width="120" height="320" as="geometry" />
        </mxCell>
        <mxCell id="lklzkgGY1ycGvQAvg5bW-4" value="&lt;font face=&quot;Verdana&quot;&gt;&lt;span style=&quot;font-size: 8px;&quot;&gt;&lt;b&gt;&lt;i&gt;prod/blue&lt;/i&gt;&lt;/b&gt;&lt;/span&gt;&lt;/font&gt;" style="sketch=0;points=[[0,0,0],[0.25,0,0],[0.5,0,0],[0.75,0,0],[1,0,0],[0,1,0],[0.25,1,0],[0.5,1,0],[0.75,1,0],[1,1,0],[0,0.25,0],[0,0.5,0],[0,0.75,0],[1,0.25,0],[1,0.5,0],[1,0.75,0]];outlineConnect=0;fontColor=#666666;gradientColor=#4D72F3;gradientDirection=north;fillColor=none;strokeColor=#7EA6E0;dashed=0;verticalLabelPosition=bottom;verticalAlign=top;align=center;html=1;fontSize=12;fontStyle=0;aspect=fixed;shape=mxgraph.aws4.resourceIcon;resIcon=mxgraph.aws4.codecommit;" parent="1" vertex="1">
          <mxGeometry x="360.25" y="660.01" width="40" height="40" as="geometry" />
        </mxCell>
        <mxCell id="lklzkgGY1ycGvQAvg5bW-17" value="&lt;font face=&quot;Verdana&quot; color=&quot;#666666&quot;&gt;&lt;span style=&quot;font-size: 8px;&quot;&gt;&lt;b&gt;&lt;i&gt;dev/green&lt;/i&gt;&lt;/b&gt;&lt;/span&gt;&lt;/font&gt;" style="sketch=0;points=[[0,0,0],[0.25,0,0],[0.5,0,0],[0.75,0,0],[1,0,0],[0,1,0],[0.25,1,0],[0.5,1,0],[0.75,1,0],[1,1,0],[0,0.25,0],[0,0.5,0],[0,0.75,0],[1,0.25,0],[1,0.5,0],[1,0.75,0]];outlineConnect=0;fontColor=#232F3E;gradientColor=#4D72F3;gradientDirection=north;fillColor=none;strokeColor=#7EA6E0;dashed=0;verticalLabelPosition=bottom;verticalAlign=top;align=center;html=1;fontSize=12;fontStyle=0;aspect=fixed;shape=mxgraph.aws4.resourceIcon;resIcon=mxgraph.aws4.codecommit;" parent="1" vertex="1">
          <mxGeometry x="360.25" y="799.94" width="40" height="40" as="geometry" />
        </mxCell>
        <mxCell id="lklzkgGY1ycGvQAvg5bW-20" value="&lt;i style=&quot;color: rgb(102 , 102 , 102) ; font-family: &amp;#34;verdana&amp;#34; ; font-size: 8px&quot;&gt;&lt;b&gt;AWS Elastic Loadbalancing&lt;/b&gt;&lt;/i&gt;" style="sketch=0;points=[[0,0,0],[0.25,0,0],[0.5,0,0],[0.75,0,0],[1,0,0],[0,1,0],[0.25,1,0],[0.5,1,0],[0.75,1,0],[1,1,0],[0,0.25,0],[0,0.5,0],[0,0.75,0],[1,0.25,0],[1,0.5,0],[1,0.75,0]];outlineConnect=0;fontColor=#333333;gradientDirection=north;fillColor=none;strokeColor=#F0A30A;dashed=0;verticalLabelPosition=bottom;verticalAlign=top;align=center;html=1;fontSize=12;fontStyle=0;aspect=fixed;shape=mxgraph.aws4.resourceIcon;resIcon=mxgraph.aws4.elastic_load_balancing;" parent="1" vertex="1">
          <mxGeometry x="840" y="655.87" width="48" height="48" as="geometry" />
        </mxCell>
        <mxCell id="GHlB2KVPvjXBRH8V2S13-11" value="" style="shape=flexArrow;endArrow=classic;startArrow=none;html=1;rounded=0;fontFamily=Verdana;fontSize=10;fontColor=#B3B3B3;strokeColor=none;fillColor=#E6E6E6;opacity=40;" parent="1" edge="1">
          <mxGeometry width="100" height="100" relative="1" as="geometry">
            <mxPoint x="743" y="680" as="sourcePoint" />
            <mxPoint x="743" y="630" as="targetPoint" />
          </mxGeometry>
        </mxCell>
        <mxCell id="GHlB2KVPvjXBRH8V2S13-8" value="" style="sketch=0;points=[[0,0,0],[0.25,0,0],[0.5,0,0],[0.75,0,0],[1,0,0],[0,1,0],[0.25,1,0],[0.5,1,0],[0.75,1,0],[1,1,0],[0,0.25,0],[0,0.5,0],[0,0.75,0],[1,0.25,0],[1,0.5,0],[1,0.75,0]];outlineConnect=0;fontColor=#232F3E;gradientColor=#F78E04;gradientDirection=north;fillColor=none;strokeColor=#F0A30A;dashed=0;verticalLabelPosition=bottom;verticalAlign=top;align=center;html=1;fontSize=12;fontStyle=0;aspect=fixed;shape=mxgraph.aws4.resourceIcon;resIcon=mxgraph.aws4.elastic_beanstalk;" parent="1" vertex="1">
          <mxGeometry x="952" y="599.75" width="48" height="48" as="geometry" />
        </mxCell>
        <mxCell id="GHlB2KVPvjXBRH8V2S13-5" style="rounded=0;orthogonalLoop=1;jettySize=auto;html=1;strokeColor=#666666;endArrow=blockThin;endFill=1;startArrow=blockThin;startFill=1;exitX=0;exitY=0.5;exitDx=0;exitDy=0;exitPerimeter=0;edgeStyle=elbowEdgeStyle;" parent="1" source="lklzkgGY1ycGvQAvg5bW-20" edge="1">
          <mxGeometry relative="1" as="geometry">
            <mxPoint x="840" y="640" as="sourcePoint" />
            <mxPoint x="765.25" y="679.995" as="targetPoint" />
          </mxGeometry>
        </mxCell>
        <mxCell id="GHlB2KVPvjXBRH8V2S13-13" value="" style="shape=flexArrow;endArrow=none;startArrow=classic;html=1;rounded=0;fontFamily=Verdana;fontSize=10;fontColor=#B3B3B3;strokeColor=none;fillColor=#E6E6E6;opacity=40;" parent="1" edge="1" source="Ms5KzgWXCVhli3xs8acB-5">
          <mxGeometry width="100" height="100" relative="1" as="geometry">
            <mxPoint x="743" y="729" as="sourcePoint" />
            <mxPoint x="743" y="680" as="targetPoint" />
          </mxGeometry>
        </mxCell>
        <mxCell id="lklzkgGY1ycGvQAvg5bW-6" value="" style="endArrow=blockThin;html=1;rounded=0;fontColor=#97D077;strokeColor=#666666;endFill=1;" parent="1" edge="1">
          <mxGeometry width="50" height="50" relative="1" as="geometry">
            <mxPoint x="480" y="680" as="sourcePoint" />
            <mxPoint x="600" y="680" as="targetPoint" />
          </mxGeometry>
        </mxCell>
        <mxCell id="lklzkgGY1ycGvQAvg5bW-16" value="" style="edgeStyle=orthogonalEdgeStyle;rounded=0;orthogonalLoop=1;jettySize=auto;html=1;fontColor=#97D077;endArrow=none;endFill=0;strokeColor=#666666;exitX=1;exitY=0.5;exitDx=0;exitDy=0;exitPerimeter=0;curved=1;" parent="1" source="lklzkgGY1ycGvQAvg5bW-17" edge="1">
          <mxGeometry relative="1" as="geometry">
            <mxPoint x="480" y="820" as="targetPoint" />
            <Array as="points">
              <mxPoint x="450" y="820" />
              <mxPoint x="450" y="820" />
            </Array>
          </mxGeometry>
        </mxCell>
        <mxCell id="lklzkgGY1ycGvQAvg5bW-5" value="" style="edgeStyle=orthogonalEdgeStyle;rounded=0;orthogonalLoop=1;jettySize=auto;html=1;fontColor=#97D077;endArrow=none;endFill=0;strokeColor=#666666;curved=1;entryX=0.995;entryY=0.592;entryDx=0;entryDy=0;entryPerimeter=0;exitX=1;exitY=0.5;exitDx=0;exitDy=0;exitPerimeter=0;" parent="1" source="lklzkgGY1ycGvQAvg5bW-4" target="lklzkgGY1ycGvQAvg5bW-3" edge="1">
          <mxGeometry relative="1" as="geometry">
            <mxPoint x="440" y="680" as="targetPoint" />
            <Array as="points">
              <mxPoint x="420" y="680" />
              <mxPoint x="420" y="750" />
              <mxPoint x="439" y="750" />
            </Array>
          </mxGeometry>
        </mxCell>
        <mxCell id="GHlB2KVPvjXBRH8V2S13-15" value="&lt;font style=&quot;&quot; size=&quot;1&quot;&gt;&lt;i&gt;&lt;b style=&quot;font-size: 8px&quot;&gt;Min.io S3 cache&lt;br&gt;&lt;/b&gt;&lt;/i&gt;&lt;/font&gt;&lt;span style=&quot;font-size: 8px; font-style: italic;&quot;&gt;minio.service.consul:9001&lt;/span&gt;" style="sketch=0;points=[[0,0,0],[0.25,0,0],[0.5,0,0],[0.75,0,0],[1,0,0],[0,1,0],[0.25,1,0],[0.5,1,0],[0.75,1,0],[1,1,0],[0,0.25,0],[0,0.5,0],[0,0.75,0],[1,0.25,0],[1,0.5,0],[1,0.75,0]];outlineConnect=0;fontColor=#B3B3B3;gradientColor=#F78E04;gradientDirection=north;fillColor=none;strokeColor=#B3B3B3;verticalLabelPosition=bottom;verticalAlign=top;align=center;html=1;fontSize=12;fontStyle=0;aspect=fixed;shape=mxgraph.aws4.resourceIcon;resIcon=mxgraph.aws4.ecs;fontFamily=Verdana;opacity=30;textOpacity=30;" parent="1" vertex="1">
          <mxGeometry x="818.25" y="136.5" width="43.5" height="43.5" as="geometry" />
        </mxCell>
        <mxCell id="GHlB2KVPvjXBRH8V2S13-17" value="&lt;span style=&quot;font-size: 10px ; font-style: italic ; font-weight: 700 ; background-color: rgb(248 , 249 , 250)&quot;&gt;FDio hosted&lt;/span&gt;" style="line;strokeWidth=11;html=1;fontFamily=Verdana;fontSize=8;fontColor=#666666;fillColor=none;gradientColor=none;strokeColor=#CC0000;" parent="1" vertex="1">
          <mxGeometry x="40" y="229" width="80" height="10" as="geometry" />
        </mxCell>
        <mxCell id="GHlB2KVPvjXBRH8V2S13-19" value="&lt;span style=&quot;font-size: 10px ; font-style: italic ; font-weight: 700 ; background-color: rgb(248 , 249 , 250)&quot;&gt;LF hosted&lt;/span&gt;" style="line;strokeWidth=11;html=1;fontFamily=Verdana;fontSize=8;fontColor=#666666;fillColor=none;gradientColor=none;strokeColor=#7EA6E0;" parent="1" vertex="1">
          <mxGeometry x="40" y="270" width="80" height="10" as="geometry" />
        </mxCell>
        <mxCell id="GHlB2KVPvjXBRH8V2S13-20" value="&lt;span style=&quot;font-size: 10px ; font-style: italic ; font-weight: 700 ; background-color: rgb(248 , 249 , 250)&quot;&gt;AWS hosted&lt;/span&gt;" style="line;strokeWidth=11;html=1;fontFamily=Verdana;fontSize=8;fontColor=#666666;fillColor=none;gradientColor=none;strokeColor=#F0A30A;" parent="1" vertex="1">
          <mxGeometry x="40" y="310" width="80" height="10" as="geometry" />
        </mxCell>
        <mxCell id="GHlB2KVPvjXBRH8V2S13-21" value="&lt;span style=&quot;font-size: 10px ; font-style: italic ; font-weight: 700 ; background-color: rgb(248 , 249 , 250)&quot;&gt;Optional (not in use)&lt;/span&gt;" style="line;strokeWidth=11;html=1;fontFamily=Verdana;fontSize=8;fontColor=#666666;fillColor=none;gradientColor=none;strokeColor=#B3B3B3;" parent="1" vertex="1">
          <mxGeometry x="40" y="349" width="80" height="10" as="geometry" />
        </mxCell>
        <mxCell id="GHlB2KVPvjXBRH8V2S13-22" value="" style="sketch=0;points=[[0,0,0],[0.25,0,0],[0.5,0,0],[0.75,0,0],[1,0,0],[0,1,0],[0.25,1,0],[0.5,1,0],[0.75,1,0],[1,1,0],[0,0.25,0],[0,0.5,0],[0,0.75,0],[1,0.25,0],[1,0.5,0],[1,0.75,0]];outlineConnect=0;fontColor=#232F3E;gradientColor=#945DF2;gradientDirection=north;fillColor=none;strokeColor=#F0A30A;dashed=0;verticalLabelPosition=bottom;verticalAlign=top;align=center;html=1;fontSize=12;fontStyle=0;aspect=fixed;shape=mxgraph.aws4.resourceIcon;resIcon=mxgraph.aws4.route_53;fontFamily=Verdana;" parent="1" vertex="1">
          <mxGeometry x="1280" y="599.75" width="40" height="40" as="geometry" />
        </mxCell>
        <mxCell id="Ms5KzgWXCVhli3xs8acB-1" value="&lt;font color=&quot;#666666&quot; style=&quot;font-size: 8px;&quot; face=&quot;Verdana&quot;&gt;&lt;b style=&quot;&quot;&gt;&lt;i style=&quot;&quot;&gt;github/actions&lt;/i&gt;&lt;/b&gt;&lt;/font&gt;" style="shape=image;html=1;verticalAlign=top;verticalLabelPosition=bottom;labelBackgroundColor=#ffffff;imageAspect=0;aspect=fixed;image=https://cdn1.iconfinder.com/data/icons/picons-social/57/github_rounded-128.png" vertex="1" parent="1">
          <mxGeometry x="358.5" y="330" width="43.5" height="43.5" as="geometry" />
        </mxCell>
        <mxCell id="Ms5KzgWXCVhli3xs8acB-2" style="edgeStyle=orthogonalEdgeStyle;curved=1;rounded=0;orthogonalLoop=1;jettySize=auto;html=1;fontFamily=Verdana;fontSize=8;fontColor=#333333;startArrow=none;startFill=0;endArrow=none;endFill=0;strokeColor=#666666;exitX=1;exitY=0.5;exitDx=0;exitDy=0;" edge="1" parent="1" source="Ms5KzgWXCVhli3xs8acB-1">
          <mxGeometry relative="1" as="geometry">
            <Array as="points">
              <mxPoint x="420" y="352" />
              <mxPoint x="420" y="300" />
            </Array>
            <mxPoint x="412" y="253" as="sourcePoint" />
            <mxPoint x="440" y="300" as="targetPoint" />
          </mxGeometry>
        </mxCell>
        <mxCell id="Ms5KzgWXCVhli3xs8acB-6" value="" style="shape=flexArrow;endArrow=none;startArrow=classic;html=1;rounded=0;fontFamily=Verdana;fontSize=10;fontColor=#B3B3B3;strokeColor=none;fillColor=#E6E6E6;opacity=40;" edge="1" parent="1" target="Ms5KzgWXCVhli3xs8acB-5">
          <mxGeometry width="100" height="100" relative="1" as="geometry">
            <mxPoint x="743" y="729" as="sourcePoint" />
            <mxPoint x="743" y="680" as="targetPoint" />
          </mxGeometry>
        </mxCell>
        <mxCell id="Ms5KzgWXCVhli3xs8acB-5" value="&lt;i style=&quot;color: rgb(102, 102, 102); font-family: Verdana; font-size: x-small;&quot;&gt;&lt;b style=&quot;font-size: 8px;&quot;&gt;AWS EC2&lt;/b&gt;&lt;/i&gt;" style="sketch=0;outlineConnect=0;fontColor=#232F3E;gradientColor=none;fillColor=#F0A30A;strokeColor=none;dashed=0;verticalLabelPosition=bottom;verticalAlign=top;align=center;html=1;fontSize=12;fontStyle=0;aspect=fixed;pointerEvents=1;shape=mxgraph.aws4.m6g_instance;" vertex="1" parent="1">
          <mxGeometry x="720" y="657.94" width="44.13" height="44.13" as="geometry" />
        </mxCell>
        <mxCell id="Ms5KzgWXCVhli3xs8acB-12" value="" style="group" vertex="1" connectable="0" parent="1">
          <mxGeometry x="600" y="780" width="400" height="79.87" as="geometry" />
        </mxCell>
        <mxCell id="Ms5KzgWXCVhli3xs8acB-11" value="&lt;font face=&quot;Verdana&quot; color=&quot;#b3b3b3&quot; size=&quot;1&quot;&gt;&lt;i&gt;Docker&lt;/i&gt;&lt;/font&gt;&lt;div&gt;&lt;div&gt;&lt;font face=&quot;Verdana&quot; color=&quot;#b3b3b3&quot; size=&quot;1&quot;&gt;&lt;i&gt;&lt;br&gt;&lt;br&gt;&lt;br&gt;&lt;br&gt;&lt;/i&gt;&lt;/font&gt;&lt;/div&gt;&lt;/div&gt;" style="rounded=0;whiteSpace=wrap;html=1;fillColor=none;dashed=1;strokeColor=#B3B3B3;" vertex="1" parent="Ms5KzgWXCVhli3xs8acB-12">
          <mxGeometry width="400" height="79.87" as="geometry" />
        </mxCell>
        <mxCell id="Ms5KzgWXCVhli3xs8acB-9" value="&lt;font face=&quot;Verdana&quot; style=&quot;font-size: 8px;&quot; color=&quot;#666666&quot;&gt;&lt;i&gt;&lt;b&gt;cdash.localhost:5000&lt;/b&gt;&lt;/i&gt;&lt;/font&gt;" style="outlineConnect=0;dashed=0;verticalLabelPosition=bottom;verticalAlign=top;align=center;html=1;shape=mxgraph.aws3.ec2_compute_container_2;fillColor=#F58534;gradientColor=none;" vertex="1" parent="Ms5KzgWXCVhli3xs8acB-12">
          <mxGeometry x="175" y="27.24" width="49.38" height="25.38" as="geometry" />
        </mxCell>
        <mxCell id="Ms5KzgWXCVhli3xs8acB-13" style="edgeStyle=orthogonalEdgeStyle;curved=1;rounded=0;orthogonalLoop=1;jettySize=auto;html=1;fontFamily=Verdana;fontSize=8;fontColor=#333333;startArrow=none;startFill=0;endArrow=none;endFill=0;strokeColor=#666666;exitX=1;exitY=0.812;exitDx=0;exitDy=0;exitPerimeter=0;" edge="1" parent="1" source="43LEpUkmqykjruBSBFt2-74">
          <mxGeometry relative="1" as="geometry">
            <mxPoint x="1360" y="730" as="targetPoint" />
            <mxPoint x="1320" y="820" as="sourcePoint" />
            <Array as="points">
              <mxPoint x="1340" y="820" />
              <mxPoint x="1340" y="730" />
            </Array>
          </mxGeometry>
        </mxCell>
        <mxCell id="Ms5KzgWXCVhli3xs8acB-14" style="edgeStyle=orthogonalEdgeStyle;orthogonalLoop=1;jettySize=auto;html=1;fontFamily=Verdana;fontSize=16;fontColor=#666666;startArrow=none;startFill=0;endArrow=blockThin;endFill=1;strokeColor=#666666;rounded=0;fontStyle=1" edge="1" parent="1">
          <mxGeometry relative="1" as="geometry">
            <mxPoint x="1000" y="819.86" as="targetPoint" />
            <Array as="points" />
            <mxPoint x="1320" y="819.86" as="sourcePoint" />
          </mxGeometry>
        </mxCell>
        <mxCell id="Ms5KzgWXCVhli3xs8acB-15" value="&lt;i style=&quot;color: rgb(102 , 102 , 102) ; font-family: &amp;quot;verdana&amp;quot; ; font-size: 10px&quot;&gt;:5000&lt;/i&gt;" style="edgeLabel;html=1;align=center;verticalAlign=middle;resizable=0;points=[];fontSize=8;" vertex="1" connectable="0" parent="Ms5KzgWXCVhli3xs8acB-14">
          <mxGeometry x="0.1763" y="-2" relative="1" as="geometry">
            <mxPoint x="26" y="-7" as="offset" />
          </mxGeometry>
        </mxCell>
        <mxCell id="Ms5KzgWXCVhli3xs8acB-16" style="edgeStyle=orthogonalEdgeStyle;curved=1;rounded=0;orthogonalLoop=1;jettySize=auto;html=1;fontFamily=Verdana;fontSize=8;fontColor=#333333;startArrow=none;startFill=0;endArrow=none;endFill=0;strokeColor=#666666;exitX=1;exitY=0.374;exitDx=0;exitDy=0;exitPerimeter=0;" edge="1" parent="1" source="43LEpUkmqykjruBSBFt2-74">
          <mxGeometry relative="1" as="geometry">
            <mxPoint x="1360" y="730" as="targetPoint" />
            <mxPoint x="1270" y="780" as="sourcePoint" />
            <Array as="points">
              <mxPoint x="1340" y="680" />
              <mxPoint x="1340" y="730" />
            </Array>
          </mxGeometry>
        </mxCell>
        <mxCell id="Ms5KzgWXCVhli3xs8acB-17" style="edgeStyle=orthogonalEdgeStyle;orthogonalLoop=1;jettySize=auto;html=1;fontFamily=Verdana;fontSize=16;fontColor=#666666;startArrow=none;startFill=0;endArrow=blockThin;endFill=1;strokeColor=#666666;rounded=0;" edge="1" parent="1">
          <mxGeometry relative="1" as="geometry">
            <mxPoint x="1000" y="680" as="targetPoint" />
            <Array as="points" />
            <mxPoint x="1320" y="679.75" as="sourcePoint" />
          </mxGeometry>
        </mxCell>
        <mxCell id="Ms5KzgWXCVhli3xs8acB-18" value="&lt;i style=&quot;color: rgb(102 , 102 , 102) ; font-family: &amp;quot;verdana&amp;quot; ; font-size: 10px&quot;&gt;:443&lt;/i&gt;" style="edgeLabel;html=1;align=center;verticalAlign=middle;resizable=0;points=[];fontSize=8;" vertex="1" connectable="0" parent="Ms5KzgWXCVhli3xs8acB-17">
          <mxGeometry x="0.1763" y="-2" relative="1" as="geometry">
            <mxPoint x="26" y="-7" as="offset" />
          </mxGeometry>
        </mxCell>
        <mxCell id="Ms5KzgWXCVhli3xs8acB-19" value="" style="endArrow=blockThin;html=1;rounded=0;fontColor=#97D077;strokeColor=#666666;endFill=1;entryX=0;entryY=0.5;entryDx=0;entryDy=0;" edge="1" parent="1" target="Ms5KzgWXCVhli3xs8acB-11">
          <mxGeometry width="50" height="50" relative="1" as="geometry">
            <mxPoint x="480" y="820" as="sourcePoint" />
            <mxPoint x="740" y="830" as="targetPoint" />
          </mxGeometry>
        </mxCell>
        <mxCell id="Ms5KzgWXCVhli3xs8acB-21" value="" style="edgeStyle=orthogonalEdgeStyle;rounded=0;orthogonalLoop=1;jettySize=auto;html=1;fontColor=#97D077;endArrow=none;endFill=0;strokeColor=#666666;curved=1;" edge="1" parent="1">
          <mxGeometry relative="1" as="geometry">
            <mxPoint x="480" y="680" as="targetPoint" />
            <Array as="points">
              <mxPoint x="460" y="750" />
              <mxPoint x="460" y="680" />
            </Array>
            <mxPoint x="440" y="750" as="sourcePoint" />
          </mxGeometry>
        </mxCell>
        <mxCell id="Ms5KzgWXCVhli3xs8acB-22" value="" style="edgeStyle=orthogonalEdgeStyle;rounded=0;orthogonalLoop=1;jettySize=auto;html=1;fontColor=#97D077;endArrow=none;endFill=0;strokeColor=#666666;curved=1;" edge="1" parent="1">
          <mxGeometry relative="1" as="geometry">
            <mxPoint x="480" y="820" as="targetPoint" />
            <Array as="points">
              <mxPoint x="460" y="750" />
              <mxPoint x="460" y="820" />
            </Array>
            <mxPoint x="440" y="750" as="sourcePoint" />
          </mxGeometry>
        </mxCell>
      </root>
    </mxGraphModel>
  </diagram>
</mxfile>
